Coordinates
version=1
nRows=49
nColumns=12
inDegrees=yes

Units are S.I. units (second, meters, Newtons, ...)
Angles are in degrees

endheader
time	SC_y	SC_z	SC_x	AC_y	AC_z	AC_x	GH_y	GH_z	GH_yy	EL_x	PS_y
       0.0              -58.38           1.56          67.52          67.88          -2.54          6.906         -128.2          65.79          105.1          27.68          13.91
   0.04985              -58.38          1.563          67.52          67.88         -2.541          6.904         -128.2          65.79          105.1          27.68          13.92
    0.0997              -58.37          1.566          67.53          67.87         -2.542          6.902         -128.2          65.79          105.1          27.69          13.93
    0.1495              -58.37          1.569          67.53          67.87         -2.543          6.899         -128.2           65.8          105.1          27.69          13.94
    0.1994              -58.36          1.572          67.53          67.86         -2.544          6.897         -128.2           65.8          105.1          27.69          13.95
    0.2492              -58.36          1.576          67.53          67.86         -2.545          6.894         -128.2           65.8          105.1           27.7          13.96
    0.2991              -58.35           1.58          67.53          67.85         -2.546          6.891         -128.2           65.8          105.1           27.7          13.97
    0.3489              -58.35          1.584          67.53          67.84         -2.547          6.888         -128.2           65.8          105.1           27.7          13.99
    0.3988              -58.34          1.589          67.53          67.83         -2.549          6.884         -128.2          65.81          105.1          27.71           14.0
    0.4486              -58.34          1.593          67.54          67.82          -2.55          6.881         -128.2          65.81          105.1          27.71          14.01
    0.4985              -58.33          1.599          67.54          67.82         -2.552          6.877         -128.2          65.81          105.0          27.71          14.03
    0.5483              -58.32          1.604          67.54          67.81         -2.554          6.873         -128.1          65.82          105.0          27.72          14.04
    0.5982              -58.31           1.61          67.54          67.79         -2.555          6.868         -128.1          65.82          105.0          27.72          14.06
     0.648               -58.3          1.617          67.54          67.78         -2.557          6.863         -128.1          65.82          105.0          27.73          14.08
    0.6979              -58.29          1.624          67.55          67.77         -2.559          6.858         -128.1          65.83          105.0          27.74           14.1
    0.7477              -58.28          1.631          67.55          67.76         -2.562          6.852         -128.1          65.83          105.0          27.74          14.12
    0.7976              -58.27          1.639          67.55          67.74         -2.564          6.846         -128.1          65.84          105.0          27.75          14.15
    0.8474              -58.26          1.648          67.56          67.73         -2.567          6.839         -128.1          65.84          105.0          27.76          14.18
    0.8973              -58.25          1.658          67.56          67.71          -2.57          6.832         -128.1          65.85          104.9          27.77           14.2
    0.9471              -58.23          1.669          67.56          67.69         -2.573          6.824         -128.1          65.86          104.9          27.77          14.24
     0.997              -58.22          1.681          67.57          67.67         -2.577          6.815         -128.1          65.86          104.9          27.78          14.27
     1.047               -58.2          1.694          67.57          67.65         -2.581          6.805         -128.1          65.87          104.9           27.8          14.31
     1.097              -58.18          1.708          67.58          67.62         -2.585          6.794         -128.1          65.88          104.9          27.81          14.35
     1.147              -58.16          1.724          67.58          67.59          -2.59          6.782         -128.1          65.89          104.8          27.82           14.4
     1.196              -58.13          1.741          67.59          67.56         -2.595          6.769         -128.1           65.9          104.8          27.84          14.45
     1.246              -58.11          1.761           67.6          67.53         -2.601          6.754         -128.1          65.91          104.8          27.85          14.51
     1.296              -58.07          1.783           67.6          67.49         -2.608          6.737         -128.1          65.92          104.7          27.87          14.57
     1.346              -58.04          1.808          67.61          67.44         -2.616          6.718         -128.0          65.94          104.7          27.89          14.65
     1.396               -58.0          1.836          67.62          67.39         -2.624          6.697         -128.0          65.96          104.6          27.92          14.73
     1.446              -57.96          1.868          67.63          67.33         -2.634          6.673         -128.0          65.97          104.6          27.94          14.83
     1.495              -57.91          1.904          67.65          67.27         -2.645          6.645         -128.0           66.0          104.5          27.97          14.93
     1.545              -57.85          1.945          67.66           67.2         -2.657          6.614         -128.0          66.02          104.4          28.01          15.06
     1.595              -57.79          1.994          67.68          67.11         -2.672          6.577         -128.0          66.05          104.4          28.05           15.2
     1.645              -57.71          2.049           67.7          67.01         -2.689          6.535         -127.9          66.08          104.3           28.1          15.36
     1.695              -57.62          2.115          67.72          66.89         -2.709          6.485         -127.9          66.12          104.1          28.15          15.56
     1.745              -57.51          2.192          67.75          66.76         -2.732          6.427         -127.9          66.17          104.0          28.22          15.79
     1.795              -57.39          2.283          67.78          66.59          -2.76          6.357         -127.8          66.22          103.8           28.3          16.06
     1.844              -57.24          2.393          67.82           66.4         -2.794          6.274         -127.8          66.29          103.7          28.39          16.38
     1.894              -57.05          2.526          67.87          66.16         -2.834          6.173         -127.7          66.37          103.4           28.5          16.78
     1.944              -56.83          2.688          67.93          65.87         -2.883           6.05         -127.6          66.47          103.1          28.64          17.26
     1.994              -56.56          2.888           68.0          65.51         -2.944          5.898         -127.5          66.59          102.8          28.81          17.85
     2.044              -56.21          3.138          68.09          65.07          -3.02          5.709         -127.4          66.74          102.4          29.02          18.59
     2.094              -55.78          3.452          68.21           64.5         -3.116          5.471         -127.2          66.93          101.8          29.29          19.52
     2.144              -55.23          3.852          68.35          63.79         -3.238          5.167         -127.0          67.17          101.1          29.63          20.71
     2.193              -54.53          4.364          68.53          62.88         -3.393          4.779         -126.8          67.48          100.2          30.07          22.22
     2.243              -53.63          5.021          68.77           61.7         -3.593          4.281         -126.4          67.87          99.06          30.62          24.17
     2.293              -52.47          5.859          69.07           60.2         -3.848          3.645         -126.0          68.38           97.6          31.34          26.66
     2.343              -51.03          6.914          69.45          58.32         -4.169          2.845         -125.5          69.01          95.75          32.23          29.78
     2.393              -49.26          8.199          69.92          56.02          -4.56           1.87         -124.9          69.79          93.51          33.33          33.59
